<svg viewBox="0 0 100 100" fill="none" xmlns="http://www.w3.org/2000/svg" class="relative z-10 w-full h-full text-peloka-primary"><line x1="20" y1="25" x2="35" y2="40" stroke="currentColor" stroke-width="1.5" stroke-opacity="0.6"></line><line x1="35" y1="40" x2="50" y2="35" stroke="currentColor" stroke-width="1.5" stroke-opacity="0.6"></line><line x1="50" y1="35" x2="65" y2="40" stroke="currentColor" stroke-width="1.5" stroke-opacity="0.6"></line><line x1="65" y1="40" x2="80" y2="25" stroke="currentColor" stroke-width="1.5" stroke-opacity="0.6"></line><line x1="20" y1="25" x2="15" y2="55" stroke="currentColor" stroke-width="1.5" stroke-opacity="0.6"></line><line x1="80" y1="25" x2="85" y2="55" stroke="currentColor" stroke-width="1.5" stroke-opacity="0.6"></line><line x1="15" y1="55" x2="35" y2="75" stroke="currentColor" stroke-width="1.5" stroke-opacity="0.6"></line><line x1="85" y1="55" x2="65" y2="75" stroke="currentColor" stroke-width="1.5" stroke-opacity="0.6"></line><line x1="35" y1="75" x2="50" y2="85" stroke="currentColor" stroke-width="1.5" stroke-opacity="0.6"></line><line x1="65" y1="75" x2="50" y2="85" stroke="currentColor" stroke-width="1.5" stroke-opacity="0.6"></line><line x1="35" y1="40" x2="50" y2="55" stroke="#adc7f7" stroke-width="1" stroke-opacity="0.8"></line><line x1="65" y1="40" x2="50" y2="55" stroke="#adc7f7" stroke-width="1" stroke-opacity="0.8"></line><line x1="15" y1="55" x2="50" y2="55" stroke="#adc7f7" stroke-width="1" stroke-opacity="0.4"></line><line x1="85" y1="55" x2="50" y2="55" stroke="#adc7f7" stroke-width="1" stroke-opacity="0.4"></line><line x1="35" y1="75" x2="50" y2="55" stroke="#adc7f7" stroke-width="1.2" stroke-opacity="0.6"></line><line x1="65" y1="75" x2="50" y2="55" stroke="#adc7f7" stroke-width="1.2" stroke-opacity="0.6"></line><circle cx="20" cy="25" r="4.5" fill="#ffb77d" class="animate-pulse"></circle><circle cx="80" cy="25" r="4.5" fill="#ffb77d" class="animate-pulse"></circle><circle cx="15" cy="55" r="3.5" fill="#ff8c00"></circle><circle cx="85" cy="55" r="3.5" fill="#ff8c00"></circle><circle cx="35" cy="75" r="3.5" fill="#ffb77d"></circle><circle cx="65" cy="75" r="3.5" fill="#ffb77d"></circle><circle cx="50" cy="85" r="4.5" fill="#ff8c00"></circle><circle cx="35" cy="40" r="4" fill="#adc7f7"></circle><circle cx="65" cy="40" r="4" fill="#adc7f7"></circle><circle cx="50" cy="35" r="3" fill="#ea9748"></circle><circle cx="50" cy="55" r="5" fill="#14b8a6" class="animate-ping" style="animation-duration: 3s;"></circle><circle cx="50" cy="55" r="4" fill="#14b8a6"></circle></svg>